<svg xmlns="http://www.w3.org/2000/svg" viewBox="0 0 102 102"><defs><style>.cls-1,.cls-2{fill:#fff;}.cls-1{stroke:#000;stroke-miterlimit:10;stroke-width:2px;}</style></defs><g id="Layer_2" data-name="Layer 2"><g id="Layer_1-2" data-name="Layer 1"><circle class="cls-1" cx="51" cy="51" r="50"/><path d="M46,1H56a18,18,0,0,0,1.87.54C79.07,5.45,93,17.59,99.19,38.29c.76,2.52,1.22,5.14,1.81,7.71V56c-.32,1.28-.73,2.54-1,3.83A49.86,49.86,0,0,1,62.51,99.51L56,101H46a18.22,18.22,0,0,0-1.88-.54C22.93,96.55,9,84.42,2.81,63.72,2.05,61.19,1.59,58.57,1,56V46a18.22,18.22,0,0,0,.54-1.88C5.36,22.44,19.61,7.1,40.46,2.25Zm4.84,98c26,.47,47.77-21.19,48.27-47.07C99.64,24.91,77.29,3,51.29,2.88,24.86,2.76,3.18,24.57,2.88,50.4,2.57,77.09,24.67,99.35,50.84,99Z"/><path d="M87.42,59.52c1.09.91,1.63,1.3,2.08,1.77a10.27,10.27,0,0,1,.93,1.3l-2,2.29c1,.55,2.3.84,2.76,1.63a4.41,4.41,0,0,1,.11,3.15,4.06,4.06,0,0,1-1.78,1.9c-.41.27-1.13.08-1.71.08q-36.84,0-73.69,0C13,71.58,11,71,10.86,70.33c-.34-1.83-1.23-4.2,1.7-5.32l-2.16-2.5,2.94-3.14,3.9,4.55c1.36,1.61,2.33,1.89,3.67-.29,9.22-15,18.57-29.88,27.88-44.8.31-.49.67-1,.94-1.47.91-1.73,1.59-1.55,2.55.06q10.85,18,21.79,36c2.15,3.55,4.38,7.06,6.46,10.64.85,1.46,1.61,1.5,2.64.32Zm-20.18,6L51.72,40c-.38.38-.59.49-.59.61-.05,7.89-.1,15.79-.06,23.69a1.69,1.69,0,0,0,1.14,1.22C56.93,65.58,61.65,65.55,67.24,65.55Z"/><path class="cls-2" d="M51.13,40.58c0-.12.21-.23.59-.61L67.24,65.55c-5.59,0-10.31,0-15-.06a1.69,1.69,0,0,1-1.14-1.22"/></g></g></svg>