<svg xmlns="http://www.w3.org/2000/svg" viewBox="0 0 102 102.03"><defs><style>.cls-1,.cls-2{fill:#fff;}.cls-1,.cls-3{stroke:#000;stroke-miterlimit:10;stroke-width:2px;}.cls-3{fill:none;}</style></defs><g id="Layer_2" data-name="Layer 2"><g id="Layer_1-2" data-name="Layer 1"><path class="cls-1" d="M100.12,41.62s0,0,0-.07a50,50,0,0,0-41-39.89,50,50,0,0,0-15.56-.1A49.85,49.85,0,0,0,13.2,18.28c-.27.3-.54.61-.78.92a49.86,49.86,0,0,0-3.54,4.86l-.31.5A50.08,50.08,0,0,0,1.88,60.38s0,0,0,.07a50,50,0,0,0,41,39.89,49.94,49.94,0,0,0,15.55.1C70,98.72,79.35,93,86.9,84.74a.41.41,0,0,1,.29-.15,4,4,0,0,1,.46,0c.16.18-5.59,5.49-5.65,5.42s7.63-6.79,11.63-12.87A43.67,43.67,0,0,0,96,73a39.7,39.7,0,0,0,2.13-5.28,51.57,51.57,0,0,0,2.31-9.23,50.4,50.4,0,0,0-.32-16.87ZM99,50H77.42a1.82,1.82,0,0,1-1.35-3A2.78,2.78,0,0,0,77,44.87a1.8,1.8,0,0,0-3.34-.73c-1.37,2.51-3.75,3-7.28,2.08s-7.6-.36-11.36-.92c-1.12-.17-2.85-1.9-2.86-2.94"/><path class="cls-2" d="M100.12,41.62s0,0,0-.07c-.48-1.86-1-3.71-1.59-5.51C92.14,17.55,79.29,6.28,60.26,2c-.39-.09-.78-.2-1.16-.31-.7-.21-1.4-.45-2.1-.66H45l-1.46.56C36.93,4,30,5.89,24,9.43A44.53,44.53,0,0,0,13.2,18.28c-.27.3-.54.61-.78.92a41.87,41.87,0,0,0-3.54,4.86l-.31.5A53.53,53.53,0,0,0,1.92,42.29a7.72,7.72,0,0,1-.36,1.22c-.18.5-.39,1-.56,1.49V57c1.33,5.34,2,8,2,8s-.37-1.54-1.12-4.62v0A97.59,97.59,0,0,0,6,72c-2.16-4.82-2.59-6-2.51-6,.27-.13,3.56,12.39,13.85,21.87A53.59,53.59,0,0,0,41,100a48.25,48.25,0,0,0,6,1c0-.15-7-1.69-13-3l13,3a54.09,54.09,0,0,0,20-3,71.46,71.46,0,0,0,11.43-5.72A44.73,44.73,0,0,0,88,84.61l0-.06a43.6,43.6,0,0,0,5.57-7.42l.45-.76c2.85-5,4.81-12.6,6-18.66.08-.41.21,1.18.36.78s-.61-6-.44-6.49V46ZM99.84,50H72.05c3.62-2.62,7.62-4.41,2.51-8.53-1,4.81-3.66,5.9-8.2,4.75-3.62-.92-7.6-.36-11.36-.92-1.12-.17-2.85-1.9-2.86-2.94C51.94,29.58,53,14.8,53,2.07A52,52,0,0,1,83,15C98,28.48,99.58,46.19,99.84,50ZM50,2.18,49,42.4C42.88,39.32,40.18,31.08,41.9,25q-.27-4.26-.53-8.5l-.88,1a35.48,35.48,0,0,0-3.76-2.65,55.51,55.51,0,0,0-5.18-2.19L31.38,16l-2.29-.78-.72,1.62c1.81,1,3.63,2,5.42,3.07,1.63,1,3.22,2,4.82,3a33.18,33.18,0,0,1-4.27,3.36c-2.44,1.36-5.05,2.39-8.52,4,1.62,1.28,2.55,2.66,3.61,2.76,6.42.61,6,4.89,5.33,9.38-.31,2.12-.72,4.22-1.13,6.57H2A51.53,51.53,0,0,1,15.83,17.84C29.28,3.72,46.23,2.39,50,2.18ZM2.43,52.07c6.4,0,13.85-.33,20.23.22,1.64.14,4,2.82,4.37,4.69.89,4,3.55,4.65,8.18,5.82l-5.35-8.09L50,57.12v43.2A48.72,48.72,0,0,1,22,91C3.52,77.29,2.52,55.09,2.43,52.07ZM53,100.71V57.19c4.11-.68,7.62-.76,10.94,2.64,1.81,1.86,4.93,2.54,7.56,3.48A13.8,13.8,0,0,1,80,71.08c1.17,2.57,3.78,4.47,5.74,6.67l1.44-1c-.31-1-.58-1.93-1-2.86-.1-.26-.6-.35-.76-.61C82.26,67.85,79.72,62,74.56,57.9c-.91-.73-.62-3-1-4.9h26c-.06,3.1-.82,23.29-17.57,37A48.6,48.6,0,0,1,53,100.71Z"/><path d="M100.12,41.62s0,0,0-.07c-.48-1.86-1-3.71-1.59-5.51C92.14,17.55,79.29,6.28,60.26,2c-.39-.09-.78-.2-1.16-.31-.7-.21-1.4-.45-2.1-.66H45l-1.46.56C36.93,4,30,5.89,24,9.43A44.53,44.53,0,0,0,13.2,18.28c-.27.3-.54.61-.78.92a41.87,41.87,0,0,0-3.54,4.86l-.31.5A53.53,53.53,0,0,0,1.92,42.29a7.72,7.72,0,0,1-.36,1.22c-.18.5-.39,1-.56,1.49V57c1.33,5.34,2,8,2,8s-.37-1.54-1.12-4.62v0A97.59,97.59,0,0,0,6,72c-2.16-4.82-2.59-6-2.51-6,.27-.13,3.56,12.39,13.85,21.87A53.59,53.59,0,0,0,41,100a48.25,48.25,0,0,0,6,1c0-.15-7-1.69-13-3l13,3a54.09,54.09,0,0,0,20-3,71.46,71.46,0,0,0,11.43-5.72A44.73,44.73,0,0,0,88,84.61l0-.06a43.6,43.6,0,0,0,5.57-7.42l.45-.76c2.85-5,4.81-12.6,6-18.66.08-.41.21,1.18.36.78s-.61-6-.44-6.49V46ZM99.84,50H72.05c3.62-2.62,7.62-4.41,2.51-8.53-1,4.81-3.66,5.9-8.2,4.75-3.62-.92-7.6-.36-11.36-.92-1.12-.17-2.85-1.9-2.86-2.94C51.94,29.58,53,14.8,53,2.07A52,52,0,0,1,83,15C98,28.48,99.58,46.19,99.84,50ZM50,2.18,49,42.4C42.88,39.32,40.18,31.08,41.9,25q-.27-4.26-.53-8.5l-.88,1a35.48,35.48,0,0,0-3.76-2.65,55.51,55.51,0,0,0-5.18-2.19L31.38,16l-2.29-.78-.72,1.62c1.81,1,3.63,2,5.42,3.07,1.63,1,3.22,2,4.82,3a33.18,33.18,0,0,1-4.27,3.36c-2.44,1.36-5.05,2.39-8.52,4,1.62,1.28,2.55,2.66,3.61,2.76,6.42.61,6,4.89,5.33,9.38-.31,2.12-.72,4.22-1.13,6.57H2A51.53,51.53,0,0,1,15.83,17.84C29.28,3.72,46.23,2.39,50,2.18ZM2.43,52.07c6.4,0,13.85-.33,20.23.22,1.64.14,4,2.82,4.37,4.69.89,4,3.55,4.65,8.18,5.82l-5.35-8.09L50,57.12v43.2A48.72,48.72,0,0,1,22,91C3.52,77.29,2.52,55.09,2.43,52.07ZM53,100.71V57.19c4.11-.68,7.62-.76,10.94,2.64,1.81,1.86,4.93,2.54,7.56,3.48A13.8,13.8,0,0,1,80,71.08c1.17,2.57,3.78,4.47,5.74,6.67l1.44-1c-.31-1-.58-1.93-1-2.86-.1-.26-.6-.35-.76-.61C82.26,67.85,79.72,62,74.56,57.9c-.91-.73-.62-3-1-4.9h26c-.06,3.1-.82,23.29-17.57,37A48.6,48.6,0,0,1,53,100.71Z"/><path class="cls-3" d="M100.12,41.62s0,0,0-.07c-.48-1.86-1-3.71-1.59-5.51C92.14,17.55,79.29,6.28,60.26,2c-.39-.09-.78-.2-1.16-.31-.7-.21-1.4-.45-2.1-.66H45l-1.46.56C36.93,4,30,5.89,24,9.43A44.53,44.53,0,0,0,13.2,18.28c-.27.3-.54.61-.78.92a41.87,41.87,0,0,0-3.54,4.86l-.31.5A53.53,53.53,0,0,0,1.92,42.29a7.72,7.72,0,0,1-.36,1.22c-.18.5-.39,1-.56,1.49V57c1.33,5.34,2,8,2,8s-.37-1.54-1.12-4.62v0A97.59,97.59,0,0,0,6,72c-2.16-4.82-2.59-6-2.51-6,.27-.13,3.56,12.39,13.85,21.87A53.59,53.59,0,0,0,41,100a48.25,48.25,0,0,0,6,1c0-.15-7-1.69-13-3l13,3a54.09,54.09,0,0,0,20-3,71.46,71.46,0,0,0,11.43-5.72A44.73,44.73,0,0,0,88,84.61l0-.06a43.6,43.6,0,0,0,5.57-7.42l.45-.76c2.85-5,4.81-12.6,6-18.66.08-.41.21,1.18.36.78s-.61-6-.44-6.49V46ZM99.84,50H72.05c3.62-2.62,7.62-4.41,2.51-8.53-1,4.81-3.66,5.9-8.2,4.75-3.62-.92-7.6-.36-11.36-.92-1.12-.17-2.85-1.9-2.86-2.94C51.94,29.58,53,14.8,53,2.07A52,52,0,0,1,83,15C98,28.48,99.58,46.19,99.84,50ZM50,2.18,49,42.4C42.88,39.32,40.18,31.08,41.9,25q-.27-4.26-.53-8.5l-.88,1a35.48,35.48,0,0,0-3.76-2.65,55.51,55.51,0,0,0-5.18-2.19L31.38,16l-2.29-.78-.72,1.62c1.81,1,3.63,2,5.42,3.07,1.63,1,3.22,2,4.82,3a33.18,33.18,0,0,1-4.27,3.36c-2.44,1.36-5.05,2.39-8.52,4,1.62,1.28,2.55,2.66,3.61,2.76,6.42.61,6,4.89,5.33,9.38-.31,2.12-.72,4.22-1.13,6.57H2A51.53,51.53,0,0,1,15.83,17.84C29.28,3.72,46.23,2.39,50,2.18ZM2.43,52.07c6.4,0,13.85-.33,20.23.22,1.64.14,4,2.82,4.37,4.69.89,4,3.55,4.65,8.18,5.82l-5.35-8.09L50,57.12v43.2A48.72,48.72,0,0,1,22,91C3.52,77.29,2.52,55.09,2.43,52.07ZM53,100.71V57.19c4.11-.68,7.62-.76,10.94,2.64,1.81,1.86,4.93,2.54,7.56,3.48A13.8,13.8,0,0,1,80,71.08c1.17,2.57,3.78,4.47,5.74,6.67l1.44-1c-.31-1-.58-1.93-1-2.86-.1-.26-.6-.35-.76-.61C82.26,67.85,79.72,62,74.56,57.9c-.91-.73-.62-3-1-4.9h26c-.06,3.1-.82,23.29-17.57,37A48.6,48.6,0,0,1,53,100.71Z"/></g></g></svg>