<svg xmlns="http://www.w3.org/2000/svg" viewBox="0 0 102 102"><defs><style>.cls-1{fill:#fff;stroke:#000;stroke-miterlimit:10;stroke-width:2px;}</style></defs><g id="Layer_2" data-name="Layer 2"><g id="Layer_1-2" data-name="Layer 1"><circle class="cls-1" cx="51" cy="51" r="50"/><path d="M56,1c1.84.42,3.69.82,5.53,1.25C82.45,7.11,97.13,23,100.46,44.3c4,25.6-14.83,51.56-40.39,55.72-1.37.22-2.71.65-4.07,1H46a18.22,18.22,0,0,0-1.88-.54C22.93,96.55,9,84.42,2.81,63.72,2.05,61.19,1.59,58.57,1,56V46a18.22,18.22,0,0,0,.54-1.88C5.36,22.44,19.61,7.1,40.46,2.25L46,1ZM99,51.13A48.11,48.11,0,0,0,51.44,2.9C24.94,2.6,3.26,24.48,2.88,50.25c-.39,26.83,21.83,49,48.06,48.83C77.64,98.89,99,77.73,99,51.13Z"/><path d="M67,9,87.51,36.28c-.83,1.08-1.9,2-2.27,3.06-.63,1.92-1.59,4.21-1.08,5.94,1.61,5.37.32,10.35-.94,15.45a51.67,51.67,0,0,1-7.88,17.91,4.12,4.12,0,0,1-.77,1q-9,6.77-17.9,13.47c-3.31-3.28-3.27-3.91-1.37-7.6a16.9,16.9,0,0,0,1.53-5.71,59,59,0,0,0,0-6.24c0-3.68.71-4.43,4.33-5.12,3.37-.64,5.36-3,6.66-5.86,2.32-5.07,2.72-10.21-.08-15.35-1.35-2.47-2.34-5.14-3.51-7.71-.41-.89-.89-1.73-1.29-2.51-5.39,1.69-10.52,2.37-15.81.58-2.77-.93-3-.65-3.15,2.18-.08,1.58-.06,3.17-.26,4.74-.26,1.91.37,2.78,2.37,2.77s3.82.25,5.73.28a4.7,4.7,0,0,1,4.28,2.53C58.39,53.94,60.7,57.8,63,61.68c1,1.73.6,4.1-.74,5s-3.84.35-5-1.46C55.54,62.54,54,59.79,52.47,57a4.39,4.39,0,0,0-4.57-2.69c-2.2.14-4.42,0-7,0,1,2.19,1.94,4.19,2.83,6.21.46,1.05,1.23,2.16,1.19,3.22-.2,4.9-.48,9.81-1.13,14.66-.13.9-2.1,2.09-3.28,2.17-2.14.13-3.3-1.54-3.25-3.61.08-3.07.59-6.14.6-9.21a14.51,14.51,0,0,0-1-5.46c-1.37-3.38-3.09-6.63-4.69-9.91-.74-1.51-1.61-1.87-2.68-.22a11.25,11.25,0,0,1-1.61,1.9,3.21,3.21,0,0,1-5.28-.69c-1.12-1.78-.39-4.19,1.81-6.42,1.59-1.61,2.81-.64,4.13.35.64.48,1.35.86,2.46,1.56.17-1.29.33-2.14.38-3,.23-3.74.39-7.48.65-11.22.32-4.42,2.7-6.3,7.11-6.1A6.82,6.82,0,0,0,43,27.46c3-2.05,5.9-4.36,8.84-6.54,2.28-1.7,4.38-1.89,5.25-.34,1.22,2.18-.11,3.56-1.78,4.78q-3.14,2.3-6.19,4.65a24.11,24.11,0,0,0-1.77,1.65c3.06,1.93,9.51,2.08,14,.42C58.45,23.32,57.45,14.88,67,9Z"/><path d="M43.46,21a5.55,5.55,0,0,1-6,5.65,6.68,6.68,0,0,1-6-6.46,5.78,5.78,0,0,1,5.63-5.79A6.39,6.39,0,0,1,43.46,21Z"/></g></g></svg>