<svg xmlns="http://www.w3.org/2000/svg" viewBox="0 0 102 102"><defs><style>.cls-1,.cls-2{fill:#fff;}.cls-1{stroke:#000;stroke-miterlimit:10;stroke-width:2px;}</style></defs><g id="Layer_2" data-name="Layer 2"><g id="Layer_1-2" data-name="Layer 1"><circle class="cls-1" cx="51" cy="51" r="50"/><path d="M44,1H58a10.13,10.13,0,0,0,2.12.93,50.9,50.9,0,0,1,27.44,15C95,24.5,98.41,34,101,44V58c-2.69,10.87-6.79,20.91-15.11,28.93C78,94.55,68.35,98.4,58,101H44a7.86,7.86,0,0,0-1.7-.83C22,95.91,8.78,83.91,2.86,64,2.27,62,1.62,60,1,58V44a18.08,18.08,0,0,0,1-2.59C5.21,26.72,13,15.16,26.23,7.89,31.74,4.85,38.05,3.25,44,1ZM78.06,82l.19.17c-2-1.66-4-3.32-6-5C70.78,76,69.29,74.8,67.53,73.4c5.78-.53,10.56-.91,15.33-1.44,3.79-.43,7.35-.53,8.88,4.19C106.1,55.76,99.3,25.21,77.66,10.89A48.2,48.2,0,1,0,26.17,92.35C48.47,105.81,77.38,98,88.66,80.47Z"/><path d="M82.33,57c3-2.76,5.78-5.68,9-8.15.58-.44,2.58.94,3.92,1.47l-.27,1.6L86,55.64V66.08l-7.1-1.17-.7,6.27c-3.89.7-7.77,1.92-9.1-3.94l-4.52,2.55c2.6,6.72,8.21,9.65,14,12.33L78.45,82c.16.94.31,1.87.53,3.19L66.75,83.78l3.6-1.71c-7-1.75-13.26-3.47-19.59-4.88-11.94-2.64-23.65-6.9-36.31-4.83-1.33.21-3.77-2.78-4.73-4.76-1.57-3.2-.56-6.71,2.61-8.15,3.35-1.52,7.51-3,10.89-2.37,6.9,1.34,13.62,3.88,20.23,6.41,6.27,2.39,12.31,5.39,18.44,8.13l.6-1.29c-1-.49-2-1-3.1-1.45C53.13,66.52,53.13,66.53,53,60l-7.66,2.48c.56-5,1-9.22,1.49-13.4l1.33-.35L55.58,59l.63-.33-1.35-3.25c1.72-3.1,8.74.78,13.53,7.23l10-2.64,5,3.65,1.69-1.47Z"/><path d="M43.86,34.46l1.86-4.07c1.2.91,2.88,1.57,3.51,2.78,1.73,3.31,3,6.84,4.42,10.13-3.32,3.2-9.46.31-10.4,5.66-.7,4-.13,8.25-.13,13L23.53,54.75c0-.41-.11-1,0-1,7.17-3.24,10.81-10.2,16.15-15.36C41.11,37,42.58,35.65,44,34.3L38.67,42H50.24C48.56,38.57,50,33.43,43.86,34.46Z"/><path d="M50.21,26.15l5-10.2,6.06,5.2-9.59,6.29Z"/><path d="M32.21,44.28c-1.59-2.38-3.46-4-3.22-5.09a5.78,5.78,0,0,1,3.62-3.72c1-.23,3.75,2.23,3.57,3C35.75,40.24,34.07,41.74,32.21,44.28Z"/><path d="M50.93,79.91l-30.47-5.8.18-1,30.51,5.55Z"/><path d="M64.45,49.68c-2.46,1.57-3.79,3-5.19,3.1-1.1,0-2.28-1.63-3.43-2.55,1.05-1.18,2-3.19,3.16-3.34S61.83,48.25,64.45,49.68Z"/><path d="M77.09,56.44c-2.28,1.48-3.54,3-4.7,2.87s-2.34-1.64-3.51-2.56c1-1.14,1.94-3.15,3-3.2C73.21,53.5,74.64,55,77.09,56.44Z"/><path class="cls-2" d="M43.86,34.46c6.13-1,4.7,4.11,6.38,7.54H38.67L44,34.3Z"/></g></g></svg>