<svg xmlns="http://www.w3.org/2000/svg" viewBox="0 0 102 102"><defs><style>.cls-1{fill:#fff;stroke:#000;stroke-miterlimit:10;stroke-width:2px;}</style></defs><g id="Layer_2" data-name="Layer 2"><g id="Layer_1-2" data-name="Layer 1"><circle class="cls-1" cx="51" cy="51" r="50"/><path d="M46,1H56c.62.18,1.23.42,1.87.54C79.05,5.48,93,17.52,99.2,38.31c.75,2.52,1.21,5.12,1.8,7.69V56c-.32,1.28-.73,2.54-1,3.83A49.86,49.86,0,0,1,62.51,99.51L56,101H46a18.22,18.22,0,0,0-1.88-.54C22.93,96.55,9,84.42,2.81,63.72,2.05,61.19,1.59,58.57,1,56V46a18.22,18.22,0,0,0,.54-1.88C5.36,22.44,19.61,7.1,40.46,2.25ZM13.37,80.8c15.74,21,47.9,24.31,68.22,7.36,22-18.37,20.81-47.83,9.53-63,0,5.18,0,9.88,0,14.58,0,1.78.15,3.33,1.55,4.76,1.75,1.8,1.41,4.07,0,6.13a8.51,8.51,0,0,0-1.5,4.19c-.17,5.66,0,11.33-.11,17s-4.78,10.09-9.91,9.78A9.46,9.46,0,0,1,72.23,71c.47-5.3,4.56-8.76,7-13.27.43.48.73.65.73.84.08,3.57.18,7.14.1,10.71,0,.33-1.09.83-1.72.9s-1.16-.37-2.57-.89c.38,2.23.34,4,1,5.43a5.25,5.25,0,0,0,5.91,2.67,5.84,5.84,0,0,0,4.58-5.81c.08-6,.09-12,0-18a5.1,5.1,0,0,0-1.31-2.76A5.46,5.46,0,0,1,85.8,44a7.1,7.1,0,0,0,1.45-3.71c.15-5.91.06-11.83.08-17.74,0-1.45.4-2.76-.91-4.11C74.22,5.78,59.37.54,42.21,3.77,15.09,8.87-1.5,34.2,4,61.22a43.64,43.64,0,0,0,8.14,18c3.21-4,1-8.36.59-13.22a47.88,47.88,0,0,0,4.74,2.65A13.5,13.5,0,0,0,22.33,70a22.52,22.52,0,0,0,5.59-1.19c3.67-1,3.65-1.05,3.2-4.74a4.8,4.8,0,0,1,.29-1.24,25,25,0,0,1,2.3,1,16.54,16.54,0,0,0,9.16,2.45c5.19-.29,9.94,1.76,14.33,4.43,3,1.84,3.09,3.38.08,5.35-4.67,3-9.78,5.07-15.46,4.73A11.38,11.38,0,0,0,35,82.54a33.38,33.38,0,0,1-3.63,1.65c-.16-2,.25-4-.54-4.79-1.05-1-3.05-1.06-4.64-1.52a7.11,7.11,0,0,1-1-.26C20.4,75.3,17.12,78.47,13.37,80.8Z"/><path d="M28.39,38.93a23.73,23.73,0,0,1,3.55,1.68c3.14,2.3,6.47,2.21,10,1.06A12.85,12.85,0,0,1,44.54,41c2-.24,2.84-1.16,2.43-3.19a15.64,15.64,0,0,1,0-2.45,25.42,25.42,0,0,1,3.13,1.29,12.82,12.82,0,0,0,7.29,1.93c5.73-.22,10.91,1.83,15.66,4.9,2.73,1.76,2.75,3.37.07,5.14-4.65,3.07-9.77,5.09-15.39,4.95a13.6,13.6,0,0,0-8,2.15,11.85,11.85,0,0,1-2.1.87c-.32-.29-.55-.42-.54-.5.68-3.77-1.38-4.76-4.67-5.52-3.9-.9-7.45-1.34-10.92,1.13a7.74,7.74,0,0,1-2.49.67c0-.85-.09-1.7-.1-2.54,0-2.62,0-5.24-.06-7.86A30.19,30.19,0,0,0,28.39,38.93Z"/></g></g></svg>