<svg xmlns="http://www.w3.org/2000/svg" viewBox="0 0 102 102"><defs><style>.cls-1,.cls-2{fill:#fff;}.cls-1{stroke:#000;stroke-miterlimit:10;stroke-width:2px;}</style></defs><g id="Layer_2" data-name="Layer 2"><g id="Layer_1-2" data-name="Layer 1"><circle class="cls-1" cx="51" cy="51" r="50"/><path d="M46,1H56a18,18,0,0,0,1.87.54C79.07,5.45,93,17.59,99.19,38.29c.76,2.52,1.22,5.14,1.81,7.71V56c-.32,1.28-.73,2.54-1,3.83A49.86,49.86,0,0,1,62.51,99.51L56,101H46a18.22,18.22,0,0,0-1.88-.54C22.88,96.61,9.06,84.4,2.81,63.72,2.05,61.19,1.6,58.58,1,56V46a18.22,18.22,0,0,0,.54-1.88C5.36,22.44,19.61,7.1,40.46,2.25ZM57.87,79.42a27.45,27.45,0,0,0-.46-3.23c-.91,1-1.46,1.45-1.9,2C52.2,82.37,49,86.6,45.59,90.72c-1.2,1.47-2.38,4.5-4.72,2.58-2.1-1.72.4-3.52,1.55-5,4.35-5.58,8.79-11.08,13.1-16.68.54-.71.93-2.48.58-2.78-2.64-2.19-5.49-4.14-8.79-6.54-.66,3-1.25,5.31-1.66,7.65a15.62,15.62,0,0,1-3.48,7.84c-4.45,5.14-8.68,10.48-13,15.75,16.6,9.83,46.1,7.92,62-16.12a48.11,48.11,0,1,0-83-48.36C-3.8,52.42,6,78.94,22.68,89.47c.87-1.22,1.67-2.49,2.61-3.63,3.43-4.18,7-8.29,10.34-12.5a9.29,9.29,0,0,0,2-3.63C40.3,57.35,43,45,45.36,32.59A8.21,8.21,0,0,1,52.52,26c3-.47,6.46,1.77,7.89,5s2.76,6.41,4.17,9.6c.84,1.9,1.69,3.62,4.19,4.08a23.77,23.77,0,0,1,7,2.44c1.33.73,2.81,2.4,2.93,3.75s-1.41,3.42-2.52,3.66c-2.56.53-3.75,2.27-5.14,4a60.11,60.11,0,0,0-4.13,5.32,7.27,7.27,0,0,0-1.1,3.59c-.07,7.49.08,15,0,22.49,0,3.23-2.94,5.15-5.47,3.5m9.37-39.53c-1.43-.64-2.5-1.18-3.62-1.61-2.88-1.1-6.24-1.47-7.42-5.09-.1-.31-.94-.7-1.15-.58a2.18,2.18,0,0,0-.95,1.29,64.92,64.92,0,0,0-1.42,7.56,4.5,4.5,0,0,0,1.07,3.24,42.93,42.93,0,0,0,4.54,3.44c1.09.86,1.86.72,2.7-.36C65.39,59.31,67.38,56.88,69.73,53.92Z"/><path class="cls-2" d="M69.73,53.92c-2.35,3-4.34,5.39-6.25,7.89-.84,1.08-1.61,1.22-2.7.36a42.93,42.93,0,0,1-4.54-3.44,4.5,4.5,0,0,1-1.07-3.24,64.92,64.92,0,0,1,1.42-7.56,2.18,2.18,0,0,1,.95-1.29c.21-.12,1.05.27,1.15.58,1.18,3.62,4.54,4,7.42,5.09C67.23,52.74,68.3,53.28,69.73,53.92Z"/><path d="M36.33,16.13a6.85,6.85,0,0,1,6,10.33,10.87,10.87,0,0,0-.68,3.84c-.11.9.06,1.84-.12,2.72-1.18,5.68-2.35,11.38-3.67,17-.88,3.76-4,5.63-7.93,5.05a6.57,6.57,0,0,1-5.45-7,76.53,76.53,0,0,1,1.47-8.58c.71-3.49,1.17-7.1,2.41-10.41a20,20,0,0,0,1.14-7C29.5,18.47,32.48,16.08,36.33,16.13ZM38.5,23c-1-.75-1.63-1.61-2.1-1.52-.67.13-1.2,1-1.79,1.5.59.53,1.12,1.36,1.78,1.5C36.86,24.55,37.52,23.7,38.5,23Z"/><path d="M48.17,16a7.63,7.63,0,0,1,7.88-7.82A7.91,7.91,0,0,1,64,16,8.37,8.37,0,0,1,56,24,7.92,7.92,0,0,1,48.17,16Z"/><path class="cls-2" d="M38.5,23c-1,.72-1.64,1.57-2.11,1.48-.66-.14-1.19-1-1.78-1.5.59-.54,1.12-1.37,1.79-1.5C36.87,21.37,37.53,22.23,38.5,23Z"/></g></g></svg>