<svg xmlns="http://www.w3.org/2000/svg" viewBox="0 0 327.11 159.78"><defs><style>.cls-1{fill:#fc3;}.cls-2{fill:#030;}</style></defs><g id="Layer_2" data-name="Layer 2"><g id="Layer_1-2" data-name="Layer 1"><path class="cls-1" d="M41.4,86.4a42.85,42.85,0,0,1-15.78-2.94,38.8,38.8,0,0,1-13.26-8.64A40.8,40.8,0,0,1,3.3,61,48.82,48.82,0,0,1,0,42.48,41.16,41.16,0,0,1,3.36,25.8,42.67,42.67,0,0,1,26.52,3.24,44.88,44.88,0,0,1,43.68,0,43.75,43.75,0,0,1,64.56,5,32.48,32.48,0,0,1,78.48,18.6L61.08,31.92a19.62,19.62,0,0,0-7.56-8.1,20.25,20.25,0,0,0-10.68-3.06,17.43,17.43,0,0,0-7.68,1.68,18.58,18.58,0,0,0-6.06,4.68,21,21,0,0,0-4,7.14,28.5,28.5,0,0,0-1.38,9.06,27.27,27.27,0,0,0,1.44,9.12,21.21,21.21,0,0,0,4,7A17.89,17.89,0,0,0,35.4,64a19.38,19.38,0,0,0,8,1.62,22.21,22.21,0,0,0,10.8-2.82,31.74,31.74,0,0,0,9.36-8v22.8A31.94,31.94,0,0,1,41.4,86.4Zm21-29.16H46.68V40.44h35V85.8H62.4Z"/><path class="cls-1" d="M131.64,86.4A41.55,41.55,0,0,1,114,82.74a42.64,42.64,0,0,1-13.62-9.84A44.51,44.51,0,0,1,91.62,59a43.2,43.2,0,0,1-3.06-16,41.25,41.25,0,0,1,3.24-16.2A44.85,44.85,0,0,1,100.86,13a42.42,42.42,0,0,1,13.8-9.54A43.21,43.21,0,0,1,132.12,0a41.16,41.16,0,0,1,31.2,13.56,45.82,45.82,0,0,1,8.7,14,42.89,42.89,0,0,1,3.06,15.9,41.62,41.62,0,0,1-3.18,16.08,44,44,0,0,1-9,13.74,43.38,43.38,0,0,1-13.74,9.6A42.45,42.45,0,0,1,131.64,86.4ZM112.32,43.2a29,29,0,0,0,1.2,8.34,22.54,22.54,0,0,0,3.6,7.2,17.29,17.29,0,0,0,6.06,5,21.11,21.11,0,0,0,17.46-.06,16.68,16.68,0,0,0,6.06-5.22,23.75,23.75,0,0,0,3.48-7.32A30,30,0,0,0,151.32,43a28.39,28.39,0,0,0-1.2-8.28,22.65,22.65,0,0,0-3.6-7.14,16.59,16.59,0,0,0-6.12-5,19.62,19.62,0,0,0-8.64-1.8,18.49,18.49,0,0,0-8.7,1.92,17.89,17.89,0,0,0-6.06,5.1,21.62,21.62,0,0,0-3.54,7.2A30,30,0,0,0,112.32,43.2Z"/><path class="cls-2" d="M29.43,89.22h12l8,56.84,15-25.68L59.71,89.51H70.1l2.84,23.72L86,89.51H96.27L78.43,120.38l4,25.68,32.24-56.84h12.15L84.7,158.8H75.39l-5.48-31.16L51.09,158.8H41.78Z"/><path class="cls-2" d="M163.59,159.78q-4.6,0-7.05-2.21a7.82,7.82,0,0,1-2.45-6.14,7.71,7.71,0,0,1,.19-1.67c.13-.59.23-1.15.3-1.67l12.84-60.83h10.77l-12.05,57c-.06.26-.13.55-.2.88a5.52,5.52,0,0,0-.09,1q0,4.13,4.21,4.12a10.78,10.78,0,0,0,2.6-.39,24.83,24.83,0,0,0,2.79-.88l-.29,8.43a34.45,34.45,0,0,1-5.74,1.66A28.72,28.72,0,0,1,163.59,159.78Z"/><path class="cls-2" d="M197.94,159.78a16.92,16.92,0,0,1-9.8-2.82,17.94,17.94,0,0,1-6.27-7.57,25.3,25.3,0,0,1-2.16-10.58,31.83,31.83,0,0,1,2.26-11.9,33.42,33.42,0,0,1,6.22-10.1,31.53,31.53,0,0,1,9.06-7,23.05,23.05,0,0,1,10.69-2.63,14.79,14.79,0,0,1,9.41,3,15.07,15.07,0,0,1,5.19,7.38L229,87.26h10.88l-12.55,58.8c-.07.33-.11.6-.15.83a4.88,4.88,0,0,0,0,.64c0,1.31.71,2,2.15,2.06l-1.86,9.21-2.45.34-2,.25a8.14,8.14,0,0,1-4.75-1.41,4.32,4.32,0,0,1-1.72-3.64,6.81,6.81,0,0,1,.1-1.12c.06-.42.15-.93.24-1.55a18.36,18.36,0,0,1,.45-2,26.58,26.58,0,0,1-9,7.43A23,23,0,0,1,197.94,159.78Zm4.71-9.21a13,13,0,0,0,4.11-.72,20,20,0,0,0,4.31-2.07,21,21,0,0,0,4-3.23,12.93,12.93,0,0,0,2.7-4l2.84-13.31a12.24,12.24,0,0,0-2.06-5.49,13.86,13.86,0,0,0-4.07-3.9,9.6,9.6,0,0,0-5.14-1.49,14.19,14.19,0,0,0-7,1.78,21,21,0,0,0-5.78,4.79,23.62,23.62,0,0,0-4,6.71,20.25,20.25,0,0,0-1.47,7.49,15.61,15.61,0,0,0,1.42,6.71,12.27,12.27,0,0,0,4,4.88A10.26,10.26,0,0,0,202.65,150.57Z"/><path class="cls-2" d="M258.82,159.78a20.9,20.9,0,0,1-11-2.82,18.19,18.19,0,0,1-7-7.67,25.47,25.47,0,0,1-2.5-11.07,30.83,30.83,0,0,1,2.45-11.74,32.35,32.35,0,0,1,6.66-10,31,31,0,0,1,22.54-9.37,24.91,24.91,0,0,1,9.36,1.61,13.38,13.38,0,0,1,6.13,4.65,13,13,0,0,1,2.15,7.62q.11,7.86-7,11.94T258.82,137q-2.74,0-6.18-.14t-7.74-.54l1.47-7q3.91.19,7,.39c2,.13,3.92.2,5.68.2a44.75,44.75,0,0,0,11-1.06,11.73,11.73,0,0,0,5.78-3,6.7,6.7,0,0,0,1.86-4.42,5.55,5.55,0,0,0-1.12-3.6,6.92,6.92,0,0,0-3.09-2.12,13.7,13.7,0,0,0-4.7-.72,16.83,16.83,0,0,0-8,1.89,19,19,0,0,0-6.17,5.22,26.09,26.09,0,0,0-4.07,7.54,24.66,24.66,0,0,0-1.37,8.76,17.42,17.42,0,0,0,1.22,6.67,10.78,10.78,0,0,0,3.82,4.83,11,11,0,0,0,6.52,1.84,16.88,16.88,0,0,0,8.13-2.11,15.28,15.28,0,0,0,6.08-5.73l8.62,2.65a27,27,0,0,1-6.41,6.71,33.3,33.3,0,0,1-8.68,4.7A27.67,27.67,0,0,1,258.82,159.78Z"/><path class="cls-2" d="M299.28,107.94h10.1l-2.45,11.28a32.81,32.81,0,0,1,8.33-8.37,16.44,16.44,0,0,1,9.31-3.21c.65,0,1.17,0,1.57,0a8,8,0,0,1,1,.15l-2,9.41a24.49,24.49,0,0,0-11.07,2.8,20.72,20.72,0,0,0-8.23,7.63l-6.57,31.12H288.5Z"/><path class="cls-1" d="M150,138.43l-8.51,18a15,15,0,0,1-12.66-14.61L134,80.14l13.75,1.91Z"/><path class="cls-1" d="M141.77,157l-.37-.06a15.46,15.46,0,0,1-13.08-15.1l5.19-62.23,14.69,2,2.3,56.93Zm-7.35-76.25-5.1,61.12a14.45,14.45,0,0,0,11.87,14l8.3-17.52-2.25-55.84Z"/></g></g></svg>